<svg width="23" height="25" viewBox="0 0 23 25" fill="none" xmlns="http://www.w3.org/2000/svg">
<path d="M22.4375 17.5781V1.17188C22.4375 0.522461 21.915 0 21.2656 0H5.25C2.66211 0 0.5625 2.09961 0.5625 4.6875V20.3125C0.5625 22.9004 2.66211 25 5.25 25H21.2656C21.915 25 22.4375 24.4775 22.4375 23.8281V23.0469C22.4375 22.6807 22.2666 22.3486 22.0029 22.1338C21.7979 21.3818 21.7979 19.2383 22.0029 18.4863C22.2666 18.2764 22.4375 17.9443 22.4375 17.5781ZM6.8125 6.54297C6.8125 6.38184 6.94434 6.25 7.10547 6.25H17.457C17.6182 6.25 17.75 6.38184 17.75 6.54297V7.51953C17.75 7.68066 17.6182 7.8125 17.457 7.8125H7.10547C6.94434 7.8125 6.8125 7.68066 6.8125 7.51953V6.54297ZM6.8125 9.66797C6.8125 9.50684 6.94434 9.375 7.10547 9.375H17.457C17.6182 9.375 17.75 9.50684 17.75 9.66797V10.6445C17.75 10.8057 17.6182 10.9375 17.457 10.9375H7.10547C6.94434 10.9375 6.8125 10.8057 6.8125 10.6445V9.66797ZM19.1855 21.875H5.25C4.38574 21.875 3.6875 21.1768 3.6875 20.3125C3.6875 19.4531 4.39062 18.75 5.25 18.75H19.1855C19.0928 19.585 19.0928 21.04 19.1855 21.875Z" fill="#0D0D0D"/>
</svg>
