<svg width="16" height="16" viewBox="0 0 16 16" fill="none" xmlns="http://www.w3.org/2000/svg">
<path d="M9.04685 13.9093L8.3531 14.6031C8.05935 14.8968 7.58435 14.8968 7.29373 14.6031L1.21873 8.5312C0.924976 8.23745 0.924976 7.76245 1.21873 7.47183L7.29373 1.39683C7.58748 1.10308 8.06248 1.10308 8.3531 1.39683L9.04685 2.09058C9.34373 2.38745 9.33748 2.87183 9.03435 3.16245L5.26873 6.74995H14.25C14.6656 6.74995 15 7.08433 15 7.49995V8.49995C15 8.91558 14.6656 9.24995 14.25 9.24995H5.26873L9.03435 12.8375C9.3406 13.1281 9.34685 13.6125 9.04685 13.9093Z" fill="#0D0D0D"/>
</svg>
