<svg width="16" height="16" viewBox="0 -1 16 18" fill="none" xmlns="http://www.w3.org/2000/svg">
  <path d="M8 5.25C9.24375 5.25 10.25 6.25625 10.25 7.5C10.25 8.74375 9.24375 9.75 8 9.75C6.75625 9.75 5.75 8.74375 5.75 7.5C5.75 6.25625 6.75625 5.25 8 5.25ZM5.75 2C5.75 3.24375 6.75625 4.25 8 4.25C9.24375 4.25 10.25 3.24375 10.25 2C10.25 0.75625 9.24375 -0.25 8 -0.25C6.75625 -0.25 5.75 0.75625 5.75 2ZM5.75 13C5.75 14.2437 6.75625 15.25 8 15.25C9.24375 15.25 10.25 14.2437 10.25 13C10.25 11.7562 9.24375 10.75 8 10.75C6.75625 10.75 5.75 11.7562 5.75 13Z" fill="black"/>
</svg>
