<svg width="9" height="13" viewBox="0 0 9 13" fill="none" xmlns="http://www.w3.org/2000/svg">
<path d="M9 4.9C9 2.4704 6.98564 0.5 4.5 0.5C2.01518 0.5 0 2.4704 0 4.9C0 6.584 0.969136 8.046 2.39073 8.7856L2.04545 12.5L4.5 10.9L6.95455 12.5L6.60927 8.7856C7.33112 8.41132 7.93507 7.85186 8.35628 7.1673C8.77748 6.48273 9.00002 5.6989 9 4.9ZM4.5 8.5C2.46641 8.5 0.818182 6.8884 0.818182 4.9C0.818182 2.9116 2.46641 1.3 4.5 1.3C6.53359 1.3 8.18182 2.9116 8.18182 4.9C8.18182 6.8884 6.53359 8.5 4.5 8.5Z" fill="#0D0D0D"/>
</svg>
