<svg width="13" height="13" viewBox="0 0 13 13" fill="none" xmlns="http://www.w3.org/2000/svg">
<g clip-path="url(#clip0_915_9079)">
<path d="M4.1 6.4998C5.26063 6.4998 6.2 5.56043 6.2 4.3998C6.2 3.23918 5.26063 2.2998 4.1 2.2998C2.93938 2.2998 2 3.23918 2 4.3998C2 5.56043 2.93938 6.4998 4.1 6.4998ZM5.54 7.0998H5.38438C4.99438 7.2873 4.56125 7.3998 4.1 7.3998C3.63875 7.3998 3.2075 7.2873 2.81563 7.0998H2.66C1.4675 7.0998 0.5 8.06731 0.5 9.25981V9.7998C0.5 10.2967 0.903125 10.6998 1.4 10.6998H6.8C7.29688 10.6998 7.7 10.2967 7.7 9.7998V9.25981C7.7 8.06731 6.7325 7.0998 5.54 7.0998ZM9.5 6.4998C10.4938 6.4998 11.3 5.69355 11.3 4.6998C11.3 3.70605 10.4938 2.8998 9.5 2.8998C8.50625 2.8998 7.7 3.70605 7.7 4.6998C7.7 5.69355 8.50625 6.4998 9.5 6.4998ZM10.4 7.0998H10.3288C10.0681 7.1898 9.7925 7.2498 9.5 7.2498C9.2075 7.2498 8.93188 7.1898 8.67125 7.0998H8.6C8.2175 7.0998 7.865 7.21043 7.55563 7.38855C8.01313 7.88168 8.3 8.53606 8.3 9.25981V9.97981C8.3 10.0211 8.29063 10.0604 8.28875 10.0998H11.6C12.0969 10.0998 12.5 9.69668 12.5 9.1998C12.5 8.03918 11.5606 7.0998 10.4 7.0998Z" fill="#0D0D0D"/>
</g>
<defs>
<clipPath id="clip0_915_9079">
<rect width="12" height="12" fill="white" transform="translate(0.5 0.5)"/>
</clipPath>
</defs>
</svg>
