<svg width="13" height="13" viewBox="0 0 13 13" fill="none" xmlns="http://www.w3.org/2000/svg">
<g clip-path="url(#clip0_915_9083)">
<path d="M8.375 10.625C8.375 11.6589 7.53387 12.5 6.5 12.5C5.46613 12.5 4.625 11.6589 4.625 10.625C4.625 9.59113 5.46613 8.75 6.5 8.75C7.53387 8.75 8.375 9.59113 8.375 10.625ZM4.84203 1.0906L5.16078 7.4656C5.17576 7.76497 5.42284 8 5.72258 8H7.27742C7.57716 8 7.82424 7.76497 7.83922 7.4656L8.15797 1.0906C8.17402 0.769297 7.91788 0.5 7.59617 0.5H5.40383C5.08212 0.5 4.82598 0.769297 4.84203 1.0906Z" fill="#0D0D0D"/>
</g>
<defs>
<clipPath id="clip0_915_9083">
<rect width="12" height="12" fill="white" transform="translate(0.5 0.5)"/>
</clipPath>
</defs>
</svg>
