<svg width="31" height="21" viewBox="0 0 31 21" fill="none" xmlns="http://www.w3.org/2000/svg">
<path d="M30.3278 12.7548L26.5557 19.2212C26.2622 19.7245 25.8419 20.142 25.3367 20.4322C24.8315 20.7223 24.2591 20.875 23.6765 20.875H2.84505C1.88031 20.875 1.27922 19.8285 1.76531 18.9952L5.5374 12.5288C5.83095 12.0255 6.25127 11.608 6.75646 11.3179C7.26165 11.0277 7.83407 10.875 8.41667 10.875H29.2481C30.2129 10.875 30.814 11.9215 30.3278 12.7548ZM8.41667 9.20833H25.5V6.70833C25.5 5.3276 24.3807 4.20833 23 4.20833H14.6667L11.3333 0.875H3C1.61927 0.875 0.5 1.99427 0.5 3.375V17.8566L4.09776 11.689C4.99031 10.1589 6.64526 9.20833 8.41667 9.20833Z" fill="#E46455"/>
</svg>
