<svg width="25" height="25" viewBox="0 0 25 25" fill="none" xmlns="http://www.w3.org/2000/svg">
<g clip-path="url(#clip0_143_2846)">
<path d="M12.169 7.82374L4.16683 14.4145V21.5277C4.16683 21.7119 4.23999 21.8886 4.37023 22.0188C4.50046 22.149 4.67709 22.2222 4.86127 22.2222L9.72499 22.2096C9.90856 22.2087 10.0843 22.1351 10.2138 22.005C10.3433 21.8748 10.416 21.6987 10.416 21.5151V17.3611C10.416 17.1769 10.4891 17.0003 10.6194 16.87C10.7496 16.7398 10.9262 16.6666 11.1104 16.6666H13.8882C14.0724 16.6666 14.249 16.7398 14.3792 16.87C14.5095 17.0003 14.5826 17.1769 14.5826 17.3611V21.5121C14.5823 21.6035 14.6001 21.694 14.6349 21.7785C14.6696 21.863 14.7207 21.9398 14.7853 22.0046C14.8498 22.0693 14.9264 22.1206 15.0108 22.1557C15.0952 22.1907 15.1857 22.2087 15.2771 22.2087L20.1391 22.2222C20.3232 22.2222 20.4999 22.149 20.6301 22.0188C20.7603 21.8886 20.8335 21.7119 20.8335 21.5277V14.4097L12.8331 7.82374C12.739 7.74793 12.6218 7.70659 12.501 7.70659C12.3802 7.70659 12.2631 7.74793 12.169 7.82374ZM24.8092 12.3033L21.1807 9.31246V3.30074C21.1807 3.16261 21.1258 3.03013 21.0282 2.93246C20.9305 2.83478 20.798 2.77991 20.6599 2.77991H18.2293C18.0912 2.77991 17.9587 2.83478 17.861 2.93246C17.7634 3.03013 17.7085 3.16261 17.7085 3.30074V6.45222L13.8226 3.25517C13.4497 2.9483 12.9818 2.78052 12.4989 2.78052C12.0159 2.78052 11.548 2.9483 11.1751 3.25517L0.18853 12.3033C0.13579 12.3469 0.0921566 12.4005 0.0601219 12.461C0.0280872 12.5214 0.00827941 12.5876 0.00183036 12.6557C-0.00461869 12.7238 0.00241739 12.7925 0.0225366 12.8579C0.0426557 12.9233 0.0754637 12.9841 0.119086 13.0369L1.22586 14.3823C1.26936 14.4352 1.32287 14.479 1.38332 14.5112C1.44377 14.5434 1.50998 14.5634 1.57815 14.5699C1.64633 14.5765 1.71513 14.5696 1.78061 14.5495C1.8461 14.5295 1.90699 14.4967 1.9598 14.4531L12.169 6.04423C12.2631 5.96842 12.3802 5.92707 12.501 5.92707C12.6218 5.92707 12.739 5.96842 12.8331 6.04423L23.0427 14.4531C23.0954 14.4967 23.1562 14.5295 23.2216 14.5496C23.287 14.5698 23.3557 14.5768 23.4238 14.5703C23.492 14.5639 23.5581 14.5441 23.6186 14.512C23.6791 14.48 23.7326 14.4364 23.7762 14.3836L24.883 13.0382C24.9265 12.9851 24.9592 12.924 24.9791 12.8583C24.999 12.7927 25.0057 12.7237 24.9988 12.6554C24.992 12.5871 24.9717 12.5209 24.9391 12.4605C24.9066 12.4 24.8624 12.3466 24.8092 12.3033Z" fill="#0D0D0D"/>
</g>
<defs>
<clipPath id="clip0_143_2846">
<rect width="25" height="25" fill="white"/>
</clipPath>
</defs>
</svg>
