<svg width="13" height="13" viewBox="0 0 13 13" fill="none" xmlns="http://www.w3.org/2000/svg">
<path d="M6.5 0.6875C3.28906 0.6875 0.6875 3.28906 0.6875 6.5C0.6875 9.71094 3.28906 12.3125 6.5 12.3125C9.71094 12.3125 12.3125 9.71094 12.3125 6.5C12.3125 3.28906 9.71094 0.6875 6.5 0.6875ZM6.5 2.9375C7.63906 2.9375 8.5625 3.86094 8.5625 5C8.5625 6.13906 7.63906 7.0625 6.5 7.0625C5.36094 7.0625 4.4375 6.13906 4.4375 5C4.4375 3.86094 5.36094 2.9375 6.5 2.9375ZM6.5 11C5.12422 11 3.89141 10.3766 3.06641 9.40156C3.50703 8.57187 4.36953 8 5.375 8C5.43125 8 5.4875 8.00938 5.54141 8.02578C5.84609 8.12422 6.16484 8.1875 6.5 8.1875C6.83516 8.1875 7.15625 8.12422 7.45859 8.02578C7.5125 8.00938 7.56875 8 7.625 8C8.63047 8 9.49297 8.57187 9.93359 9.40156C9.10859 10.3766 7.87578 11 6.5 11Z" fill="#0D0D0D"/>
</svg>
