<svg width="11" height="11" viewBox="0 0 11 11" fill="none" xmlns="http://www.w3.org/2000/svg">
<path d="M5.5 0C2.462 0 0 2.462 0 5.5C0 8.538 2.462 11 5.5 11C8.537 11 11 8.538 11 5.5C11 2.462 8.537 0 5.5 0ZM10 5.5C9.99969 6.30793 9.78005 7.10062 9.3645 7.7935L8.255 6.6845C8.41652 6.3105 8.49988 5.90744 8.49997 5.50005C8.50005 5.09267 8.41686 4.68956 8.2555 4.3155L9.365 3.2065C9.78016 3.89952 9.99962 4.69215 10 5.5ZM1.635 7.7935C1.2345 7.121 1 6.338 1 5.5C1 4.662 1.2345 3.879 1.635 3.2065L2.7445 4.316C2.5875 4.6795 2.5 5.0795 2.5 5.5C2.5 5.9205 2.5875 6.3205 2.7445 6.684L1.635 7.7935ZM3.5 5.5C3.5 4.96957 3.71071 4.46086 4.08579 4.08579C4.46086 3.71071 4.96957 3.5 5.5 3.5C6.03043 3.5 6.53914 3.71071 6.91421 4.08579C7.28929 4.46086 7.5 4.96957 7.5 5.5C7.5 6.03043 7.28929 6.53914 6.91421 6.91421C6.53914 7.28929 6.03043 7.5 5.5 7.5C4.96957 7.5 4.46086 7.28929 4.08579 6.91421C3.71071 6.53914 3.5 6.03043 3.5 5.5ZM7.7935 1.6355L6.684 2.745C6.31031 2.58301 5.90729 2.49962 5.5 2.5C5.0795 2.5 4.6795 2.5875 4.316 2.7445L3.2065 1.6355C3.89941 1.22002 4.69208 1.00038 5.5 1C6.3385 1 7.1205 1.2345 7.7935 1.6355ZM3.2065 9.3645L4.316 8.255C4.68969 8.41699 5.09271 8.50038 5.5 8.5C5.9205 8.5 6.3205 8.4125 6.684 8.2555L7.7935 9.3645C7.10059 9.77998 6.30792 9.99962 5.5 10C4.69208 9.99962 3.89941 9.77998 3.2065 9.3645Z" fill="#0D0D0D"/>
</svg>
