<svg width="16" height="16" viewBox="0 0 16 16" fill="none" xmlns="http://www.w3.org/2000/svg">
<path d="M4.99987 13.293V1H3.99987V13.293L2.02487 11.318L1.31787 12.025L4.14637 14.8535C4.24014 14.9472 4.36729 14.9999 4.49987 14.9999C4.63245 14.9999 4.75961 14.9472 4.85337 14.8535L7.68187 12.025L6.97487 11.318L4.99987 13.293ZM14.6819 3.975L11.8534 1.1465C11.7596 1.05276 11.6325 1.00011 11.4999 1.00011C11.3673 1.00011 11.2401 1.05276 11.1464 1.1465L8.31787 3.975L9.02487 4.682L10.9999 2.707V15H11.9999V2.707L13.9749 4.682L14.6819 3.975Z" fill="black"/>
</svg>
