<svg width="25" height="25" viewBox="0 0 25 25" fill="none" xmlns="http://www.w3.org/2000/svg">
<path d="M24.2552 13.9706H13.3503L20.6127 21.233C20.8903 21.5106 21.3471 21.5331 21.6325 21.2642C23.4109 19.5887 24.6343 17.33 24.9932 14.7909C25.0548 14.3562 24.694 13.9706 24.2552 13.9706ZM23.5277 10.9926C23.149 5.50276 18.762 1.11581 13.2722 0.737135C12.853 0.708183 12.5001 1.06158 12.5001 1.48162V11.7647H22.7836C23.2037 11.7647 23.5566 11.4118 23.5277 10.9926ZM10.2942 13.9706V3.06572C10.2942 2.62684 9.90865 2.26609 9.47437 2.32767C3.9978 3.10157 -0.188319 7.88603 0.00653426 13.6199C0.206902 19.5087 5.27721 24.3378 11.1688 24.2638C13.4849 24.2348 15.6251 23.4885 17.3848 22.2404C17.7478 21.983 17.7717 21.4485 17.4569 21.1337L10.2942 13.9706Z" fill="#0D0D0D"/>
</svg>
