<svg width="18" height="20" viewBox="0 0 18 20" fill="none" xmlns="http://www.w3.org/2000/svg">
<g clip-path="url(#clip0_535_2420)">
<path d="M0.899902 4.54554H17.0999M15.2999 4.54554V17.2728C15.2999 17.755 15.1103 18.2175 14.7727 18.5585C14.4351 18.8994 13.9773 19.091 13.4999 19.091H4.4999C4.02251 19.091 3.56468 18.8994 3.22711 18.5585C2.88954 18.2175 2.6999 17.755 2.6999 17.2728V4.54554M5.3999 4.54554V2.72736C5.3999 2.24515 5.58954 1.78269 5.92711 1.44171C6.26468 1.10074 6.72251 0.90918 7.1999 0.90918H10.7999C11.2773 0.90918 11.7351 1.10074 12.0727 1.44171C12.4103 1.78269 12.5999 2.24515 12.5999 2.72736V4.54554M7.1999 9.091V14.5455M10.7999 9.091V14.5455" stroke="black" stroke-width="2" stroke-linecap="round" stroke-linejoin="round"/>
</g>
<defs>
<clipPath id="clip0_535_2420">
<rect width="18" height="20" fill="white"/>
</clipPath>
</defs>
</svg>
