<svg width="25" height="25" viewBox="0 0 25 25" fill="none" xmlns="http://www.w3.org/2000/svg">
<g clip-path="url(#clip0_667_4926)">
<path d="M12.5 0.00624299C11.27 -0.0403194 10.3585 0.965303 9.96346 2.0353C6.71034 8.54153 3.45942 15.0443 0.207862 21.5462C-0.563386 23.1784 0.932547 25.1912 2.70535 24.9802C5.96472 24.974 9.24065 24.9802 12.5 24.9802C15.7591 24.9802 19.0353 24.974 22.2944 24.9802C24.0678 25.1912 25.5637 23.1784 24.7919 21.5462C21.5406 15.0443 18.2906 8.54216 15.0363 2.0353C14.6419 0.965303 13.73 -0.0403195 12.5 0.00593036V0.00624299ZM12.5 7.49841C12.8312 7.49849 13.1488 7.63008 13.3829 7.86425C13.6171 8.09842 13.7487 8.41599 13.7488 8.74716L13.1244 17.4878H11.8756L11.2513 8.74716C11.2514 8.41599 11.3829 8.09842 11.6171 7.86425C11.8513 7.63008 12.1689 7.49849 12.5 7.49841ZM12.5 18.7368C12.8311 18.7369 13.1487 18.8684 13.3828 19.1025C13.617 19.3366 13.7486 19.6541 13.7488 19.9853C13.7488 20.3165 13.6172 20.6341 13.383 20.8684C13.1489 21.1026 12.8312 21.2342 12.5 21.2343C12.1689 21.2342 11.8513 21.1026 11.6171 20.8685C11.3829 20.6343 11.2514 20.3167 11.2513 19.9856C11.2514 19.6544 11.3829 19.3368 11.6171 19.1027C11.8513 18.8685 12.1689 18.7369 12.5 18.7368Z" fill="black"/>
</g>
<defs>
<clipPath id="clip0_667_4926">
<rect width="25" height="25" fill="white"/>
</clipPath>
</defs>
</svg>
